<svg width="485" height="370" viewBox="0 0 485 370" fill="none" xmlns="http://www.w3.org/2000/svg">
<path d="M449.519 155.235C449.519 231.726 474.561 354.084 372.113 354.084C271 314.5 181.5 292 126.5 249.5C56.6582 195.531 13.164 0.0839617 115.613 0.0839617C218.062 0.0839617 449.519 -8.76532 449.519 155.235Z" fill="url(#paint0_linear_35_39)" fill-opacity="0.3"/>
<path d="M476.02 149.949C443.319 219.098 355.968 369.449 253.519 369.449C151.07 369.449 23.1913 339.114 2.51971 270.614C-22.9803 186.114 151.07 4.44919 253.519 4.44919C354.519 -13.0508 524.02 48.4492 476.02 149.949Z" fill="url(#paint1_linear_35_39)" fill-opacity="0.3"/>
<defs>
<linearGradient id="paint0_linear_35_39" x1="67.1126" y1="182.948" x2="438.112" y2="182.948" gradientUnits="userSpaceOnUse">
<stop stop-color="#4ACAC6"/>
<stop offset="1" stop-color="#9DFFFD"/>
</linearGradient>
<linearGradient id="paint1_linear_35_39" x1="67.1126" y1="182.948" x2="438.112" y2="182.948" gradientUnits="userSpaceOnUse">
<stop stop-color="#4ACAC6"/>
<stop offset="1" stop-color="#9DFFFD"/>
</linearGradient>
</defs>
</svg>
