<svg width="23" height="23" viewBox="0 0 23 23" fill="none" xmlns="http://www.w3.org/2000/svg">
<path d="M11.7572 0.828583C5.72807 0.828583 0.828583 5.72807 0.828583 11.7572C0.828583 17.7862 5.72807 22.6857 11.7572 22.6857C17.7862 22.6857 22.6857 17.7862 22.6857 11.7572C22.6857 5.72807 17.7862 0.828583 11.7572 0.828583ZM11.7572 1.77889C17.2724 1.77889 21.7354 6.24187 21.7354 11.7572C21.7354 11.7911 21.733 11.8245 21.7326 11.8583C21.4287 11.8303 21.0776 11.8036 20.6311 11.7878C19.9997 11.7654 19.2039 11.7719 18.3017 11.8165C18.3351 11.5836 18.3586 11.3473 18.3592 11.1047C18.4052 10.215 18.1064 9.38255 17.6205 8.6473C17.7379 8.24165 17.8756 7.72557 17.91 7.14017C17.9493 6.47292 17.8917 5.73303 17.356 5.23305L17.2187 5.10498H17.0312C15.7563 5.10498 14.8837 5.63868 14.3501 6.06179C13.5796 5.76356 12.7133 5.58014 11.7572 5.58014C10.7956 5.58014 9.92093 5.76613 9.11875 6.06365C8.58545 5.64034 7.71206 5.10498 6.43579 5.10498H6.24925L6.11191 5.23213C5.5901 5.71666 5.54202 6.43626 5.57457 7.10027C5.60328 7.6858 5.73301 8.21827 5.84834 8.6436C5.3542 9.3932 5.05766 10.2471 5.05766 11.0918C5.05766 11.3349 5.08026 11.5719 5.11334 11.8054C4.25532 11.7656 3.49046 11.758 2.88326 11.7794C2.43676 11.7952 2.08558 11.8216 1.78168 11.85C1.7814 11.8189 1.7789 11.7883 1.7789 11.7572C1.7789 6.24187 6.24187 1.77889 11.7572 1.77889ZM6.71884 6.11747C7.6775 6.20831 8.39875 6.63639 8.73268 6.93322L8.95541 7.12996L9.23011 7.01767C9.98154 6.70825 10.8197 6.53045 11.7572 6.53045C12.6946 6.53045 13.533 6.70914 14.2276 7.01303L14.506 7.13553L14.7334 6.93322C15.0674 6.63629 15.7899 6.20808 16.7491 6.11747C16.8766 6.3289 16.9874 6.6296 16.9607 7.08449C16.9286 7.62888 16.783 8.22184 16.673 8.57399L16.6015 8.80321L16.7435 8.99717C17.2137 9.63829 17.4534 10.3321 17.4126 11.0658L17.4117 11.0788V11.0918C17.4117 12.2775 16.9847 13.2265 16.0753 13.9297C15.1659 14.6329 13.7303 15.0832 11.7098 15.0832C9.68934 15.0832 8.25281 14.6329 7.34341 13.9297C6.43402 13.2265 6.00797 12.2775 6.00797 11.0918C6.00797 10.3958 6.25928 9.63017 6.72348 8.99717L6.86269 8.80785L6.79587 8.58234C6.68577 8.20798 6.5508 7.60149 6.52396 7.05386C6.50163 6.59836 6.60942 6.31046 6.71884 6.11747ZM4.09992 12.2425C4.43571 12.2468 4.82058 12.2649 5.20614 12.2843C5.24298 12.4324 5.28498 12.5782 5.33607 12.7205C3.76456 12.7536 2.58891 12.9116 1.86428 13.0471C1.83364 12.8094 1.80924 12.5697 1.7956 12.327C2.33113 12.2761 3.08605 12.2296 4.09992 12.2425ZM19.4144 12.2499C20.4276 12.2371 21.1822 12.2837 21.7178 12.3344C21.7042 12.5736 21.6802 12.8099 21.65 13.0443C20.8995 12.9067 19.6921 12.7487 18.0799 12.7232C18.1299 12.5838 18.1716 12.4405 18.2079 12.2954C18.6333 12.2726 19.0482 12.2546 19.4144 12.2499ZM5.53837 13.1919C5.82192 13.7601 6.22707 14.2674 6.76246 14.6814C7.49445 15.2474 8.44609 15.6429 9.60782 15.8544C9.45584 16.0106 9.3176 16.1821 9.19484 16.363L9.16607 16.338C9.16868 16.335 8.92986 16.4545 8.57305 16.4864C8.21625 16.5184 7.77612 16.5087 7.38609 16.5087C6.80403 16.5087 6.54765 16.2337 6.13788 15.7329C5.91097 15.427 5.63435 15.1794 5.36575 14.9914C5.09073 14.7989 4.85612 14.663 4.56579 14.6146L4.52681 14.6081H4.48691C4.26517 14.6081 4.0506 14.6241 3.85028 14.8531C3.75011 14.9676 3.68107 15.1795 3.72592 15.3589C3.77076 15.5383 3.88424 15.6485 3.98577 15.7162C4.63518 16.1491 4.74994 17.006 5.15695 17.7681C5.53704 18.5254 6.35733 18.8845 7.19585 18.8845H8.43107V21.1665C5.08969 19.9871 2.56988 17.0811 1.93666 13.5167C2.66408 13.3797 3.88219 13.215 5.53837 13.1919ZM17.8785 13.1956C19.5713 13.2101 20.8236 13.3746 21.5786 13.5139C20.9462 17.0796 18.4255 19.9868 15.0832 21.1665V18.6942C15.0832 17.9413 14.836 17.1111 14.4058 16.4187C14.2752 16.2085 14.1215 16.0097 13.9501 15.8312C15.0502 15.6139 15.9539 15.2252 16.6572 14.6814C17.1914 14.2683 17.5957 13.7625 17.8785 13.1956ZM11.1391 16.0809H12.4699C12.8561 16.0809 13.2683 16.3887 13.5984 16.9198C13.9284 17.451 14.1329 18.1642 14.1329 18.6942V21.4496C13.3715 21.6353 12.5762 21.7354 11.7572 21.7354C10.9381 21.7354 10.1429 21.6353 9.38138 21.4496V18.6942C9.38138 18.176 9.60367 17.4644 9.95583 16.931C10.308 16.3975 10.7529 16.0809 11.1391 16.0809ZM5.72676 16.6423C6.13814 17.069 6.63618 17.459 7.3861 17.459C7.75632 17.459 8.21843 17.4724 8.65751 17.433C8.65907 17.4329 8.66059 17.4322 8.66215 17.4321C8.6043 17.5984 8.56114 17.7657 8.5248 17.9342H7.19585C6.60983 17.9342 6.19583 17.7225 6.00518 17.3412L6.00147 17.3347L5.99869 17.3291C5.92057 17.184 5.81802 16.8939 5.72676 16.6423Z" fill="#CACACA"/>
</svg>
