<svg width="19" height="19" viewBox="0 0 19 19" fill="none" xmlns="http://www.w3.org/2000/svg">
<path d="M16.7514 0.577148H2.76286C1.55635 0.577148 0.577148 1.55635 0.577148 2.76286V16.7514C0.577148 17.9579 1.55635 18.9371 2.76286 18.9371H16.7514C17.9579 18.9371 18.9371 17.9579 18.9371 16.7514V2.76286C18.9371 1.55635 17.9579 0.577148 16.7514 0.577148ZM6.26001 7.57143V15.8771H3.63715V7.57143H6.26001ZM3.63715 5.15403C3.63715 4.54203 4.16172 4.07429 4.94858 4.07429C5.73543 4.07429 6.22941 4.54203 6.26001 5.15403C6.26001 5.76603 5.77041 6.26001 4.94858 6.26001C4.16172 6.26001 3.63715 5.76603 3.63715 5.15403ZM15.8771 15.8771H13.2543C13.2543 15.8771 13.2543 11.8292 13.2543 11.5057C13.2543 10.6314 12.8171 9.75715 11.7243 9.73966H11.6893C10.6314 9.73966 10.1943 10.6402 10.1943 11.5057C10.1943 11.9035 10.1943 15.8771 10.1943 15.8771H7.57143V7.57143H10.1943V8.69052C10.1943 8.69052 11.038 7.57143 12.7341 7.57143C14.4695 7.57143 15.8771 8.76483 15.8771 11.1822V15.8771Z" fill="#CACACA"/>
</svg>
