<svg width="21" height="21" viewBox="0 0 21 21" fill="none" xmlns="http://www.w3.org/2000/svg">
<path fill-rule="evenodd" clip-rule="evenodd" d="M10.6961 6.10352e-05C5.01292 6.10352e-05 0.405891 4.57991 0.405891 10.2298C0.405891 12.1624 0.94541 13.9698 1.88242 15.5117L0.0253296 21.0001L5.72243 19.1866C7.19657 19.9971 8.89194 20.459 10.6961 20.459C16.379 20.459 20.986 15.8794 20.986 10.2299C20.9861 4.57991 16.3791 6.10352e-05 10.6961 6.10352e-05ZM10.6961 18.8298C8.93876 18.8298 7.30254 18.3058 5.9364 17.4075L2.6118 18.466L3.69231 15.272C2.65669 13.8541 2.04478 12.1119 2.04478 10.2295C2.04478 5.48719 5.92573 1.62907 10.6961 1.62907C15.4663 1.62907 19.3473 5.48719 19.3473 10.2295C19.3473 14.9717 15.4663 18.8298 10.6961 18.8298ZM8.28269 5.9984C8.116 5.59904 7.98832 5.5855 7.73084 5.57334C7.64253 5.56913 7.54677 5.56511 7.442 5.56511C7.11028 5.56511 6.76633 5.66223 6.55908 5.87302C6.30684 6.12954 5.67616 6.73037 5.67616 7.96404C5.67616 9.1979 6.58005 10.3901 6.70599 10.5575C6.83229 10.7247 8.46888 13.2936 11.0152 14.3425C13.0026 15.1608 13.5927 15.088 14.0461 14.9894C14.7059 14.8462 15.5343 14.3631 15.7445 13.7778C15.9547 13.1922 15.9547 12.6902 15.8917 12.586C15.8286 12.4812 15.6604 12.4188 15.4082 12.293C15.156 12.1677 13.9157 11.5611 13.6845 11.4776C13.4532 11.394 13.2395 11.4195 13.0616 11.664C12.8162 12.0017 12.5802 12.3487 12.3847 12.5545C12.2313 12.716 11.9844 12.7385 11.772 12.6488C11.4929 12.5305 10.707 12.2583 9.74339 11.4043C8.99368 10.7398 8.48737 9.91898 8.34018 9.66786C8.193 9.4171 8.32721 9.2674 8.44064 9.13095C8.56997 8.97521 8.68928 8.86337 8.8154 8.71714C8.94152 8.57063 9.01198 8.49263 9.09606 8.32509C9.18014 8.15792 9.12357 7.98535 9.06046 7.85979C8.99727 7.73423 8.49224 6.50074 8.28269 5.9984Z" fill="#CACACA"/>
</svg>
